<?xml version="1.0" encoding="utf-8"?>
<!-- Generator: Adobe Illustrator 20.0.0, SVG Export Plug-In . SVG Version: 6.00 Build 0)  -->
<svg version="1.1" id="layer" xmlns="http://www.w3.org/2000/svg" xmlns:xlink="http://www.w3.org/1999/xlink" x="0px" y="0px"
	 viewBox="0 0 279 229" style="enable-background:new 0 0 279 229;" xml:space="preserve">
<style type="text/css">
	.st0{fill:#1268B1;}
	.st1{fill:#EA001B;}
	.st2{fill:#F79F1A;}
	.st3{fill:#FF5F01;}
	.st4{fill:#1B99D5;}
	.st5{fill:#FFFFFF;}
	.st6{fill:#FAA61A;}
</style>
<path class="st0" d="M197.8,139.1H18c-4.1,0-7.5-3.4-7.5-7.5v-112c0-4.1,3.4-7.5,7.5-7.5h179.7c4.1,0,7.5,3.4,7.5,7.5v112
	C205.3,135.7,201.9,139.1,197.8,139.1z"/>
<g>
	<circle class="st1" cx="78.7" cy="74.3" r="46.8"/>
	<circle class="st2" cx="136.6" cy="74.3" r="46.8"/>
	<path class="st3" d="M89.8,74.3c0,14.9,7,28.2,17.8,36.7c10.9-8.6,17.8-21.8,17.8-36.7s-7-28.2-17.8-36.7
		C96.8,46.1,89.8,59.4,89.8,74.3z"/>
</g>
<path class="st4" d="M261,216.9H81.2c-4.1,0-7.5-3.4-7.5-7.5v-112c0-4.1,3.4-7.5,7.5-7.5H261c4.1,0,7.5,3.4,7.5,7.5v112
	C268.5,213.5,265.1,216.9,261,216.9z"/>
<polygon class="st5" points="145,175.9 153.3,127.4 166.5,127.4 158.2,175.9 "/>
<path class="st5" d="M206.1,128.6c-2.6-1-6.7-2-11.8-2c-13.1,0-22.2,6.6-22.3,16c-0.1,7,6.6,10.8,11.6,13.2c5.1,2.4,6.9,3.9,6.8,6
	c0,3.2-4.1,4.7-7.9,4.7c-5.3,0-8.1-0.7-12.4-2.5l-1.7-0.8l-1.9,10.8c3.1,1.4,8.8,2.5,14.7,2.6c13.9,0,22.9-6.5,23-16.6
	c0-5.5-3.5-9.7-11.1-13.2c-4.6-2.2-7.4-3.7-7.4-6c0-2,2.4-4.2,7.6-4.2c4.3-0.1,7.4,0.9,9.9,1.9l1.2,0.6L206.1,128.6"/>
<path class="st5" d="M240,127.5h-10.2c-3.2,0-5.5,0.9-6.9,4l-19.6,44.4h13.9c0,0,2.3-6,2.8-7.3c1.5,0,15,0,16.9,0
	c0.4,1.7,1.6,7.3,1.6,7.3h12.3L240,127.5 M223.7,158.7c1.1-2.8,5.3-13.5,5.3-13.5c-0.1,0.1,1.1-2.8,1.8-4.6l0.9,4.2
	c0,0,2.5,11.6,3.1,14L223.7,158.7L223.7,158.7z"/>
<path class="st5" d="M133.9,127.5l-12.9,33l-1.4-6.7c-2.4-7.7-9.9-16.1-18.3-20.3l11.8,42.4l14,0l20.8-48.4H133.9"/>
<path class="st6" d="M109,127.4H87.7l-0.2,1c16.6,4,27.5,13.7,32.1,25.4l-4.6-22.3C114.2,128.5,111.9,127.5,109,127.4"/>
</svg>
